<svg xmlns="http://www.w3.org/2000/svg" viewBox="0 0 126.67 130.88"><g id="Calque_2" data-name="Calque 2"><g id="icoen"><path d="M38.54,130.88a2.29,2.29,0,0,1-1.87-3.61L45.29,115a15.39,15.39,0,0,1,12.52-6.5l13.71-.69a2.29,2.29,0,1,1,.23,4.57l-13.88.7A10.79,10.79,0,0,0,49,117.68l-8.63,12.23A2.28,2.28,0,0,1,38.54,130.88Z" fill="#1c2c4e"/><path d="M77.5,112.13a2.29,2.29,0,0,1-.29-4.56l6.35-.84a16.37,16.37,0,0,0,8.6-3.88l29.36-25.51a1.65,1.65,0,0,0,.57-1.19,1.63,1.63,0,0,0-.49-1.21,1.71,1.71,0,0,0-2.28-.11L97.8,92.61l-19-.31a2.29,2.29,0,1,1,.07-4.58L96.18,88,116.4,71.3a6.26,6.26,0,0,1,10.26,5,6.21,6.21,0,0,1-2.14,4.49L95.17,106.31a20.94,20.94,0,0,1-11,5l-6.35.84Z" fill="#1c2c4e"/><path d="M2.29,118.58a2.33,2.33,0,0,1-1.39-.47,2.29,2.29,0,0,1-.43-3.21L13.91,97.24c7.55-12.48,15.93-18.73,26.34-19.68H73.63a8.71,8.71,0,1,1,0,17.41H51.86a2.29,2.29,0,1,1,0-4.58H73.63a4.13,4.13,0,1,0,0-8.25H40.57c-8.83.84-16.08,6.43-22.8,17.58l-.14.2L4.11,117.67A2.29,2.29,0,0,1,2.29,118.58Z" fill="#1c2c4e"/><path d="M95.37,92l-3-3.46,15.76-13.69a2.4,2.4,0,0,0-1.34-4.18,2.41,2.41,0,0,0-1.84.55L81.56,90.68l-2.93-3.52L102,67.68a7,7,0,0,1,9.11,10.6Z" fill="#1c2c4e"/><path d="M81.58,88.29l-3-3.48L94.36,71.3a2.09,2.09,0,0,0,.72-1.43,2.07,2.07,0,0,0-.51-1.5,2.15,2.15,0,0,0-2.95-.24L75.08,81.62l-2.9-3.55L88.73,64.58a6.68,6.68,0,0,1,9.28.77,6.64,6.64,0,0,1-.67,9.42Z" fill="#1c2c4e"/><path d="M42.65,67.93,36.41,57h-4A16.1,16.1,0,0,1,16.23,41V16A16.1,16.1,0,0,1,32.36,0H74.18A16.06,16.06,0,0,1,85.75,4.86a15.84,15.84,0,0,1,4.56,11.53l-.57,24.93A16.17,16.17,0,0,1,73.61,57H66a2.29,2.29,0,0,1,0-4.58h7.57A11.57,11.57,0,0,0,85.16,41.21l.57-24.92a11.35,11.35,0,0,0-3.25-8.23,11.55,11.55,0,0,0-8.3-3.48H32.36A11.51,11.51,0,0,0,20.81,16V41A11.51,11.51,0,0,0,32.36,52.4h6.72l3.3,5.81,2.89-5.81H60A2.29,2.29,0,1,1,60,57H48.11Z" fill="#1c2c4e"/><path d="M53.27,47A19.18,19.18,0,0,1,38.16,15.77a2.5,2.5,0,1,1,3.89,3.13,14,14,0,0,0-3.11,8.85,14.28,14.28,0,1,0,8.35-12.92,2.5,2.5,0,0,1-2.07-4.55A19.24,19.24,0,1,1,53.27,47Z" fill="#1c2c4e"/><path d="M52.07,37.38l-6.53-6.67a2.91,2.91,0,1,1,4.16-4.08l2.48,2.54,21-20.23a2.92,2.92,0,1,1,4,4.2Z" fill="#1c2c4e"/></g></g></svg>