<svg xmlns="http://www.w3.org/2000/svg" viewBox="0 0 126.45 130.89"><g id="Calque_2" data-name="Calque 2"><g id="text"><path d="M64.07,23.39A11.75,11.75,0,1,1,74.19,13.28,11.76,11.76,0,0,1,64.07,23.39Zm0-20.67a9.16,9.16,0,1,0,7.48,7.47A9.18,9.18,0,0,0,64.09,2.72Z" fill="#fff"/><path d="M72.51,130.89H53.77A1.78,1.78,0,0,1,52,129.12V80.65H46.08L38.27,40.23a5,5,0,0,1,2.52-5.36l10.66-5.82,1.24,2.27L42,37.14a2.44,2.44,0,0,0-1.22,2.6l7.4,38.31h6.37v48.48a1.78,1.78,0,0,0,1.78,1.77H69.92a1.77,1.77,0,0,0,1.77-1.77V78.05h6.37l7.4-38.31a2.44,2.44,0,0,0-1.22-2.6L73.59,31.32l1.25-2.27,10.64,5.82A5,5,0,0,1,88,40.23l-7.8,40.42H74.29v48.47A1.77,1.77,0,0,1,72.51,130.89Z" fill="#fff"/><path d="M63.38,61,57.8,47.59l1.63-16h7.28L68,46.72ZM60.45,47.2l2.62,6.28,2.28-7.06-1-12.21H61.77Z" fill="#fff"/><path d="M102.57,23.39A11.75,11.75,0,1,1,112.7,13.28,11.77,11.77,0,0,1,102.57,23.39Zm0-20.67a9.16,9.16,0,1,0,7.47,7.47A9.18,9.18,0,0,0,102.6,2.72Z" fill="#fff"/><path d="M112.8,129.59h-2.6V78.05h6.37l7.21-37.31a3.83,3.83,0,0,0-1.93-4.09l-9.75-5.33,1.25-2.27,9.75,5.33a6.41,6.41,0,0,1,3.23,6.86l-7.61,39.41H112.8Z" fill="#fff"/><polygon points="93.1 129.59 90.5 129.59 90.5 80.65 84.58 80.65 83.66 75.85 86.21 75.36 86.73 78.06 93.1 78.06 93.1 129.59" fill="#fff"/><rect x="87.02" y="29.79" width="3.79" height="2.59" transform="translate(-4 46.54) rotate(-28.71)" fill="#fff"/><path d="M101.89,61,96.31,47.59l1.62-16h7.29l1.27,15.1ZM99,47.2l2.62,6.28,2.28-7.06-1-12.21h-2.55Z" fill="#fff"/><path d="M26.93,23.39A11.75,11.75,0,1,1,37.06,13.28,11.76,11.76,0,0,1,26.93,23.39ZM27,2.72a9.16,9.16,0,1,0,7.47,7.47A9.18,9.18,0,0,0,27,2.72Z" fill="#fff"/><path d="M16.25,129.59h-2.6V80.65H7.73L.12,41.24a6.4,6.4,0,0,1,3.23-6.86l9.75-5.33,1.25,2.27L4.59,36.65a3.82,3.82,0,0,0-1.92,4.09L9.88,78.05h6.37Z" fill="#fff"/><polygon points="35.95 129.59 33.35 129.59 33.35 78.06 39.72 78.06 40.24 75.36 42.79 75.85 41.86 80.65 35.95 80.65 35.95 129.59" fill="#fff"/><rect x="36.23" y="29.2" width="2.59" height="3.78" transform="matrix(0.48, -0.88, 0.88, 0.48, -7.75, 49.11)" fill="#fff"/><path d="M24.56,61,20,46.72l1.27-15.1h7.29l1.63,16Zm-2-14.55,2.28,7.06,2.62-6.28-1.32-13H23.61Z" fill="#fff"/></g></g></svg>