<svg xmlns="http://www.w3.org/2000/svg" viewBox="0 0 104.78 142.09"><g id="Calque_2" data-name="Calque 2"><g id="text"><path d="M2,141.59A2.8,2.8,0,0,1,.5,138.74q0-41.33,0-82.65c0-2,.73-3,2.09-2.92s2,1,2,3v81.18h95.48V89.52a7.43,7.43,0,0,1,.14-1.77,1.84,1.84,0,0,1,2-1.5,1.91,1.91,0,0,1,1.93,1.8,7.64,7.64,0,0,1,0,1q0,24.85,0,49.73a2.8,2.8,0,0,1-1.46,2.85Z" fill="#434f5a" stroke="#434f5a" stroke-miterlimit="10"/><path d="M18.32,109.07c0-2.88,0-5.54,0-8.2,0-2.12.69-2.79,2.82-2.79,1.88,0,3.76,0,5.64,0,.76,0,1.22-.14,1.39-.94a6.93,6.93,0,0,1,.5-1.28c1.11-2.62,1.11-2.62-1-4.7-.91-.91-1.84-1.8-2.73-2.73a2,2,0,0,1,0-3.15q3.75-3.84,7.6-7.59c1-1,2.09-.9,3.16.13q2.22,2.15,4.37,4.38a1.06,1.06,0,0,0,1.54.26A8.18,8.18,0,0,1,43,81.85c2.53-1,2.53-1,2.53-3.81,0-1.33,0-2.66,0-4a2,2,0,0,1,2.23-2.24c3.53,0,7.07,0,10.6,0a2,2,0,0,1,2.27,2.32c0,2,0,4,0,6.06,0,.72.24,1,.89,1.43,2.3,1.49,4,.9,5.48-1.16a21.17,21.17,0,0,1,2.71-2.73,2,2,0,0,1,3.06,0q3.84,3.75,7.6,7.59a2,2,0,0,1-.07,3.16c-1.27,1.32-2.55,2.65-3.9,3.88-.75.69-1,1.26-.4,2.19a7,7,0,0,1,1,2.26c.27,1.16.93,1.36,2,1.31,1.79-.08,3.58,0,5.37,0S87,98.8,87,100.76c0,2.62,0,5.24,0,7.85a4.37,4.37,0,0,0,.13.46h5.27c.5,0,1,0,1.51,0a2,2,0,0,1,2,2.07,2.07,2.07,0,0,1-2,2c-.32,0-.65,0-1,0q-17.36,0-34.71,0c-1.1,0-2.16,0-2.72-1.17s0-2,.78-2.83a4.78,4.78,0,1,0-7.2,0c.75.86,1.3,1.71.74,2.84s-1.54,1.14-2.6,1.14q-17.49,0-35,0c-.27,0-.55,0-.82,0a2.08,2.08,0,0,1-2-2.06,2,2,0,0,1,2-2c1.75-.06,3.49,0,5.24,0Zm4.19-.08H44.08c-.87-6.65,2.23-11.35,7.69-11.77a8.79,8.79,0,0,1,6.86,2.25c2.84,2.6,3.43,5.88,2.59,9.5H82.79v-6.76c-2.2,0-4.3,0-6.41,0a2.42,2.42,0,0,1-2.54-1.84,63.07,63.07,0,0,0-2.58-5.9,2.41,2.41,0,0,1,.43-3.21c1.5-1.41,3-2.85,4.33-4.16l-5-5C69.72,83.5,68.32,85,66.9,86.38s-1.87,1.38-3.65.51A36.76,36.76,0,0,0,59,85.1c-2.07-.71-2.41-1.07-2.41-3.22V76H49.68c0,2.06,0,4,0,6,0,1.75-.44,2.21-2.07,2.76-1.9.64-3.78,1.36-5.61,2.18s-2.2.77-3.54-.57-2.88-2.91-4.4-4.45c-.89.92-1.63,1.73-2.43,2.49s-1.68,1.5-2.59,2.31c1.65,1.62,3,3,4.4,4.33s1.36,2,.51,3.63A48.42,48.42,0,0,0,31.62,100c-.7,1.89-1,2.23-3.07,2.24h-6Z" fill="#434f5a" stroke="#434f5a" stroke-miterlimit="10"/><path d="M4.65,4.73V44.45a6.34,6.34,0,0,1-.14,1.63,1.87,1.87,0,0,1-2.15,1.51,1.89,1.89,0,0,1-1.8-1.78,10.21,10.21,0,0,1,0-1.24v-41c0-2.44.57-3,3-3q40.56,0,81.13,0a3.93,3.93,0,0,1,3,1.27q7.66,7.73,15.4,15.38a4,4,0,0,1,1.23,3.05q0,28.79,0,57.56a8,8,0,0,1,0,1.1,1.9,1.9,0,0,1-1.91,1.81,1.85,1.85,0,0,1-2-1.5,7.47,7.47,0,0,1-.14-1.77v-56H86.52c-2.52,0-3-.54-3-3.1V4.73Zm83,12.42h8.86L87.66,8.3Z" fill="#434f5a" stroke="#434f5a" stroke-miterlimit="10"/><path d="M30.6,66.41c-1.33,0-2.66,0-4,0A4.72,4.72,0,0,1,22,62.14a4.43,4.43,0,0,1-.06-1c.53-4.76-1.12-9.14-2.54-13.53a11.87,11.87,0,0,0-2.48-3.89c-4.84-5.61-6.35-11.95-3.9-18.95s7.5-11.07,14.72-12.36A18.71,18.71,0,0,1,45.09,42.89a19.78,19.78,0,0,0-4.16,7.91,33,33,0,0,0-1.54,10.53c.14,3.07-2,5-5.07,5.09-1.24,0-2.48,0-3.72,0ZM35.76,54c.31-1,.65-2,.87-3a24.17,24.17,0,0,1,5.48-11c4.12-4.67,4.22-11.7.83-16.93A14.6,14.6,0,1,0,19.68,40.56a18.28,18.28,0,0,1,4.43,8.24c.34,1.47.79,2.92,1.27,4.35a1.3,1.3,0,0,0,.86.78C29.4,54,32.56,54,35.76,54Zm-9.7,4.17v3.12c0,.75.38,1,1.12,1,2.34,0,4.68,0,7,0,.37,0,1-.45,1-.74a31.65,31.65,0,0,0,.05-3.38Z" fill="#434f5a" stroke="#434f5a" stroke-miterlimit="10"/><path d="M68.41,66.42c-3.49,0-7,0-10.47,0-1.9,0-2.57-.68-2.58-2.56,0-2.48,0-5,0-7.44,0-1.72.73-2.45,2.42-2.45q10.74,0,21.49,0c1.69,0,2.43.72,2.45,2.43,0,2.53,0,5.05,0,7.58,0,1.78-.73,2.43-2.57,2.44C75.57,66.43,72,66.42,68.41,66.42Zm-8.85-4.25h18v-4h-18Z" fill="#434f5a" stroke="#434f5a" stroke-miterlimit="10"/><path d="M72.68,35.53H57.8c-1.56,0-2.41-.74-2.42-2s.84-2.1,2.35-2.11c2.61,0,5.23,0,7.85,0,7.26,0,14.51,0,21.77,0a3.1,3.1,0,0,1,2.1.7,2.32,2.32,0,0,1,.38,2.07A2.63,2.63,0,0,1,88,35.47c-2.61.14-5.23.06-7.85.06Z" fill="#434f5a" stroke="#434f5a" stroke-miterlimit="10"/><path d="M72.78,42.28H87a7.57,7.57,0,0,1,1.51.09,1.72,1.72,0,0,1,1.55,2,3.91,3.91,0,0,1-1.44,1.92c-.36.28-1.06.17-1.61.17H58.46a6.38,6.38,0,0,1-1.64-.14,1.86,1.86,0,0,1-1.44-2.07A1.83,1.83,0,0,1,57,42.37a7.47,7.47,0,0,1,1.5-.09Z" fill="#434f5a" stroke="#434f5a" stroke-miterlimit="10"/><path d="M73.75,132.15H63.57a5.65,5.65,0,0,1-1.36-.13,1.87,1.87,0,0,1-1.54-2.12,1.85,1.85,0,0,1,1.85-1.85c.77-.06,1.56,0,2.34,0,6.6,0,13.2,0,19.8,0,1.43,0,2.3.78,2.32,2a2.13,2.13,0,0,1-2.22,2.13c-.32,0-.64,0-1,0Z" fill="#434f5a" stroke="#434f5a" stroke-miterlimit="10"/><path d="M31.52,122.92c-3.48,0-7,0-10.45,0-1.77,0-2.69-.71-2.72-2s.95-2.11,2.65-2.11q10.53,0,21,0a5,5,0,0,1,.55,0,2,2,0,0,1,2.08,2.1,2,2,0,0,1-2.15,2c-3.67,0-7.34,0-11,0Z" fill="#434f5a" stroke="#434f5a" stroke-miterlimit="10"/><path d="M73.69,122.92c-3.48,0-7,0-10.45,0-1.68,0-2.56-.71-2.59-2s.89-2.12,2.62-2.13q10.59,0,21.18,0c1.83,0,2.86,1.15,2.44,2.63a2.07,2.07,0,0,1-2.33,1.49C80.94,122.91,77.31,122.92,73.69,122.92Z" fill="#434f5a" stroke="#434f5a" stroke-miterlimit="10"/><path d="M31.59,128c3.53,0,7.06,0,10.59,0,1.63,0,2.53.77,2.5,2.07s-.89,2-2.42,2q-10.72,0-21.46,0c-1.56,0-2.5-.9-2.44-2.18s.93-1.93,2.5-1.94C24.43,128,28,128,31.59,128Z" fill="#434f5a" stroke="#434f5a" stroke-miterlimit="10"/><path d="M63.28,20.59c1.83,0,3.67,0,5.5,0,1.44,0,2.3.74,2.35,1.94a2.06,2.06,0,0,1-2.29,2.17c-3.75,0-7.51,0-11.26,0a2,2,0,0,1-2.2-2.11c0-1.24.82-2,2.27-2C59.53,20.57,61.41,20.59,63.28,20.59Z" fill="#434f5a" stroke="#434f5a" stroke-miterlimit="10"/></g></g></svg>