<svg xmlns="http://www.w3.org/2000/svg" viewBox="0 0 110.2 129.6"><g id="Calque_2" data-name="Calque 2"><g id="icoen"><path d="M66.37,11.25H83.54a2.1,2.1,0,0,1,2.09,2.09V55.27H79.82V17H66.37Z" fill="#1c2c4e"/><path d="M80.13,119.62h5.5v8.72a1.26,1.26,0,0,1-1.26,1.26H1.55A1.54,1.54,0,0,1,0,128.05V13.34a2.17,2.17,0,0,1,2.17-2.16H19.45v5.68H5.61v107H80.13Z" fill="#1c2c4e"/><polygon points="14.49 37.22 19.44 42.58 29.86 34.02 32.64 37.32 19.34 48.87 11.09 40.52 14.49 37.22" fill="#1c2c4e"/><polygon points="14.49 58.46 19.44 63.83 29.86 55.27 32.64 58.57 19.34 70.12 11.09 61.76 14.49 58.46" fill="#1c2c4e"/><polygon points="14.49 79.71 19.44 85.07 29.86 76.51 32.64 79.81 19.34 91.36 11.09 83.01 14.49 79.71" fill="#1c2c4e"/><polygon points="14.49 100.95 19.44 106.32 29.86 97.76 32.64 101.06 19.34 112.61 11.09 104.25 14.49 100.95" fill="#1c2c4e"/><rect x="37.67" y="42.66" width="36.66" height="4.1" fill="#1c2c4e"/><rect x="37.67" y="63.7" width="21.04" height="4.1" fill="#1c2c4e"/><rect x="37.67" y="84.74" width="12.38" height="4.1" fill="#1c2c4e"/><rect x="37.67" y="105.18" width="19.03" height="4.1" fill="#1c2c4e"/><path d="M110.2,90.17V85.25a.87.87,0,0,0-.73-.86l-6-1a.86.86,0,0,1-.69-.64,20.24,20.24,0,0,0-2.26-5.42.85.85,0,0,1,0-.94l3.63-5.12a.86.86,0,0,0-.1-1.11l-3.47-3.48a.87.87,0,0,0-1.12-.09l-5.15,3.67a.89.89,0,0,1-.94,0,20.2,20.2,0,0,0-5.21-2.14.86.86,0,0,1-.64-.69L86.44,61a.86.86,0,0,0-.85-.72H80.67a.86.86,0,0,0-.85.72l-1.08,6.42a.86.86,0,0,1-.64.69A20.32,20.32,0,0,0,73,70.22a.87.87,0,0,1-.93,0l-5.42-3.84a.85.85,0,0,0-1.11.09l-3.48,3.48A.85.85,0,0,0,62,71l3.8,5.33a.88.88,0,0,1,0,1,20.23,20.23,0,0,0-2.17,5A.86.86,0,0,1,63,83l-6.52,1.12a.87.87,0,0,0-.72.85v4.92a.87.87,0,0,0,.72.85l6.32,1.06a.87.87,0,0,1,.69.66,20.07,20.07,0,0,0,2.06,5.25.87.87,0,0,1,0,.92l-3.72,5.25a.87.87,0,0,0,.1,1.11l3.47,3.47a.88.88,0,0,0,1.12.1l5-3.59a.86.86,0,0,1,1,0,19.94,19.94,0,0,0,5.38,2.35.85.85,0,0,1,.62.68l1,6.11a.86.86,0,0,0,.85.72h4.92a.86.86,0,0,0,.85-.72l1-5.91a.87.87,0,0,1,.66-.69,20.21,20.21,0,0,0,5.61-2.24.89.89,0,0,1,.94,0l4.94,3.5a.85.85,0,0,0,1.11-.09l3.48-3.48a.85.85,0,0,0,.09-1.11l-3.46-4.86a.86.86,0,0,1,0-1,20,20,0,0,0,2.34-5.56.87.87,0,0,1,.68-.65l6-1A.87.87,0,0,0,110.2,90.17ZM84.75,99.82a12.18,12.18,0,1,1,10.5-10.49A12.19,12.19,0,0,1,84.75,99.82Z" fill="#1c2c4e"/><path d="M57.81,7.93H51a7.93,7.93,0,0,0-15.86,0H28.31a4.13,4.13,0,0,0-4.13,4.12v1.76a8,8,0,0,0,8,7.94H54a7.94,7.94,0,0,0,7.94-7.94V12.05A4.13,4.13,0,0,0,57.81,7.93ZM43.06,11.82A3.8,3.8,0,1,1,46.85,8,3.8,3.8,0,0,1,43.06,11.82Z" fill="#1c2c4e"/></g></g></svg>