<svg xmlns="http://www.w3.org/2000/svg" viewBox="0 0 34.47 32.95"><g id="Calque_2" data-name="Calque 2"><g id="text"><path d="M34.41,32.92H26.9V21.57c0-.51,0-1,0-1.53-.14-2.43-1.47-3.89-3.53-3.92a4,4,0,0,0-3.94,4c-.06,3.3,0,6.6,0,9.89v2.89H11.9V10.72h7.43v2.46c.21-.07.35-.06.41-.13,2.33-2.93,5.42-3.46,8.8-2.57s5.05,3.37,5.67,6.67a13.16,13.16,0,0,1,.24,2.33c0,4.2,0,8.4,0,12.6C34.47,32.34,34.43,32.61,34.41,32.92Z" fill="#fff"/><path d="M7.88,33H.51V10.69H7.88Z" fill="#fff"/><path d="M4.22,7.82C1.71,7.83,0,6.27,0,4S1.7,0,4.27,0A4,4,0,0,1,8.48,3.94C8.47,6.21,6.7,7.81,4.22,7.82Z" fill="#fff"/></g></g></svg>