<svg xmlns="http://www.w3.org/2000/svg" viewBox="0 0 68.69 68.69"><g id="Calque_2" data-name="Calque 2"><g id="Calque_8" data-name="Calque 8"><circle cx="34.35" cy="34.35" r="33.35" fill="none" stroke="#000" stroke-miterlimit="10" stroke-width="2"/><path d="M34.35,46H22a3.39,3.39,0,0,1-3.43-3.47V26.19A3.37,3.37,0,0,1,22,22.72c2.94,0,5.89,0,8.83,0h8.89c2.37,0,4.74,0,7.11,0a3.39,3.39,0,0,1,3.37,3.48q0,6.56,0,13.11v3.2A3.36,3.36,0,0,1,46.75,46c-3,0-5.92,0-8.88,0Zm-13-21.71.13.13L33.61,35a1,1,0,0,0,1.47,0l1.23-1.06,10.86-9.45.2-.19Zm0,20.15H47.38L37,35.37l-.89.78a2.62,2.62,0,0,1-3.52,0l-.88-.75Zm-1.13-1.17.09,0,10.26-8.92L20.26,25.41l-.08,0a6.26,6.26,0,0,0-.08.73c0,1.07,0,2.15,0,3.22q0,6.53,0,13A7.34,7.34,0,0,0,20.18,43.25Zm28.24,0h.09a6.49,6.49,0,0,0,.09-.74c0-1.05,0-2.09,0-3.13,0-4.38,0-8.76,0-13.14a7.43,7.43,0,0,0-.09-.81l-.08,0L38.17,34.35Z"/></g></g></svg>