<svg xmlns="http://www.w3.org/2000/svg" viewBox="0 0 152.09 98.65"><g id="Calque_2" data-name="Calque 2"><g id="text"><path d="M14.72,60.81a6.19,6.19,0,0,1-2.28-.43L0,55.48,18.36.87,30.27,5a6.21,6.21,0,0,1,3.92,7.72L20.67,56.43a6.21,6.21,0,0,1-6,4.38ZM3.25,54l10.14,4a3.64,3.64,0,0,0,2.91-.11,3.56,3.56,0,0,0,1.89-2.2L31.7,11.94a3.62,3.62,0,0,0-2.28-4.5L20,4.18Z" fill="#fff"/><rect x="32.51" y="12.42" width="32.59" height="2.6" fill="#fff"/><path d="M107,84.42a7.29,7.29,0,0,1-5.2-2.18L90.27,70.64l1.84-1.83,11.49,11.6a4.73,4.73,0,0,0,7-6.38l-.35-.41,2-1.68.35.41A7.33,7.33,0,0,1,107,84.42Z" fill="#fff"/><path d="M94.56,89.37a7.47,7.47,0,0,1-5.29-2.19L77.55,75.46l1.83-1.83L91.11,85.35a5,5,0,0,0,6.91,0,4.89,4.89,0,0,0,0-6.9L96.9,77.34l1.84-1.84,1.11,1.12a7.47,7.47,0,0,1-5.29,12.75Z" fill="#fff"/><rect x="27.06" y="47.36" width="2.6" height="18.31" transform="translate(-34.04 46.32) rotate(-54.07)" fill="#fff"/><path d="M82.9,95.83a7.77,7.77,0,0,1-4.55-1.48l-3.43-2.49,1.52-2.1,3.43,2.49a5.13,5.13,0,0,0,6.66-.53,5.13,5.13,0,0,0,0-7.27l-2.21-2.22,1.83-1.84,2.22,2.22A7.75,7.75,0,0,1,82.9,95.83Z" fill="#fff"/><path d="M36.53,78a6,6,0,0,1-3.92-1.33c-1.81-1.51-2.52-4-2-7.14A18.84,18.84,0,0,1,34.85,61h0c4.84-5.82,11.44-8,15-5.06s2.61,9.88-2.23,15.7A18.92,18.92,0,0,1,40,77.31,10.11,10.11,0,0,1,36.53,78Zm.31-15.36A16.2,16.2,0,0,0,33.19,70c-.37,2.14,0,3.81,1.08,4.7s2.79,1,4.83.21A16.3,16.3,0,0,0,45.65,70c3.78-4.55,5-10.06,2.57-12.05s-7.6.18-11.38,4.73Z" fill="#fff"/><path d="M48.59,86.05A7,7,0,0,1,44,84.47,6.91,6.91,0,0,1,41.83,78a14.15,14.15,0,0,1,3.27-7.11h0a12.73,12.73,0,0,1,6.23-4.27,7,7,0,0,1,6.47,1.29,7.48,7.48,0,0,1,2.52,6.37,13.18,13.18,0,0,1-9.55,11.47A9.22,9.22,0,0,1,48.59,86.05ZM47.1,72.58h0a11.76,11.76,0,0,0-2.7,5.77,4.49,4.49,0,0,0,1.3,4.12,5,5,0,0,0,4.46.79,10,10,0,0,0,5.17-3.4,9.88,9.88,0,0,0,2.39-5.7,5,5,0,0,0-1.58-4.23A4.5,4.5,0,0,0,52,69.16,10.14,10.14,0,0,0,47.1,72.58Z" fill="#fff"/><path d="M58.67,93a5.88,5.88,0,0,1-3.83-1.31,6.39,6.39,0,0,1-2.11-5.6,11.37,11.37,0,0,1,2.69-6.3C58.78,75.71,64,74.48,67,77a6.43,6.43,0,0,1,2.11,5.6,11.32,11.32,0,0,1-2.7,6.3A10.54,10.54,0,0,1,58.67,93Zm4.51-14.69a8.07,8.07,0,0,0-5.76,3.14,8.77,8.77,0,0,0-2.1,4.83,3.89,3.89,0,0,0,1.18,3.41c1.9,1.58,5.54.48,8-2.41a8.76,8.76,0,0,0,2.1-4.84A3.88,3.88,0,0,0,65.37,79,3.38,3.38,0,0,0,63.18,78.27Z" fill="#fff"/><path d="M67.13,98.65A4.76,4.76,0,0,1,64,97.58c-2.71-2.25-2.16-7.23,1.26-11.34s8.21-5.55,10.93-3.3S78.37,90.17,75,94.28a12.67,12.67,0,0,1-5.42,3.94A7.39,7.39,0,0,1,67.13,98.65Zm6-14.17c-1.62,0-3.9,1.13-5.82,3.42h0c-2.61,3.14-2.93,6.57-1.59,7.69a3.24,3.24,0,0,0,3,.17A10.26,10.26,0,0,0,73,92.62c2.61-3.14,2.93-6.57,1.59-7.69A2.25,2.25,0,0,0,73.09,84.48Z" fill="#fff"/><path d="M137.37,59.94a6.34,6.34,0,0,1-2.7-.61,6.25,6.25,0,0,1-3.25-3.78L117.9,11.83a6.2,6.2,0,0,1,3.92-7.71L133.73,0l18.36,54.61-12.44,4.9A6.19,6.19,0,0,1,137.37,59.94ZM132.1,3.31l-9.43,3.26a3.61,3.61,0,0,0-2.28,4.5L133.9,54.79a3.62,3.62,0,0,0,4.8,2.3l10.14-4Z" fill="#fff"/><rect x="115.01" y="54.64" width="18.35" height="2.6" transform="translate(-5.46 97.68) rotate(-42.1)" fill="#fff"/><path d="M116.72,76.29a9.21,9.21,0,0,1-6.4-2.57L99.4,63.29l1.79-1.88,10.92,10.43a6.73,6.73,0,0,0,4.8,1.85,6.62,6.62,0,0,0,4.68-2.1,2.33,2.33,0,0,0,0-3.21L88,33.15l-13.5.64L60.78,51a7.52,7.52,0,0,1-12.5-8.27L64,13.7a6.82,6.82,0,0,1,6-3.55h49.12v2.6H70a4.22,4.22,0,0,0-3.7,2.19l-15.76,29a4.93,4.93,0,0,0,8.19,5.42l14.4-18.09L89,30.5l34.46,36.09a4.93,4.93,0,0,1,0,6.77A9.2,9.2,0,0,1,117,76.28Z" fill="#fff"/><path d="M13.11,51.11a4,4,0,1,1,4-4A4,4,0,0,1,13.11,51.11Zm0-5.41a1.41,1.41,0,1,0,1.4,1.41A1.41,1.41,0,0,0,13.11,45.7Z" fill="#fff"/><path d="M138.93,51.11a4,4,0,1,1,4-4A4,4,0,0,1,138.93,51.11Zm0-5.41a1.41,1.41,0,1,0,1.41,1.41A1.41,1.41,0,0,0,138.93,45.7Z" fill="#fff"/></g></g></svg>