<svg xmlns="http://www.w3.org/2000/svg" viewBox="0 0 68.69 68.69"><g id="Calque_2" data-name="Calque 2"><g id="Calque_8" data-name="Calque 8"><circle cx="34.35" cy="34.35" r="33.35" fill="none" stroke="#000" stroke-miterlimit="10" stroke-width="2"/><path d="M46.56,34.78q0,6.88,0,13.76a5.49,5.49,0,0,1-.7,2.86,5.06,5.06,0,0,1-4.44,2.54l-1.12,0c-4,0-8.07.06-12.1,0a11.28,11.28,0,0,1-2.78-.3,5,5,0,0,1-3.84-4.85c0-.2,0-.41,0-.62V22a7.32,7.32,0,0,1,1.07-4.16,5.11,5.11,0,0,1,4.19-2.37c1.18-.07,2.38,0,3.56,0H40.75A5.5,5.5,0,0,1,46.5,21c0,.79,0,1.58,0,2.37Q46.57,29.07,46.56,34.78Zm-1.08.15c0-4.54,0-9.08,0-13.61a5.88,5.88,0,0,0-.26-1.67,4.39,4.39,0,0,0-3.93-3.07H27.21a4.11,4.11,0,0,0-2.19.5,4.61,4.61,0,0,0-2.37,4.14q0,13.77,0,27.55a4,4,0,0,0,.66,2.28,4.35,4.35,0,0,0,3.85,1.86H41a4.22,4.22,0,0,0,4.46-4.43C45.45,44,45.48,39.45,45.48,34.93Z"/><path d="M44.14,47.63H23.91V21.06H44.14ZM25,46.56H43.07V22.13H25Z"/><path d="M33.87,51.83a1.78,1.78,0,1,1,1.79-1.78A1.78,1.78,0,0,1,33.87,51.83Zm.72-1.78a.72.72,0,0,0-.73-.69.7.7,0,0,0,0,1.4A.72.72,0,0,0,34.59,50.05Z"/></g></g></svg>