<svg xmlns="http://www.w3.org/2000/svg" viewBox="0 0 68.69 68.69"><g id="Calque_2" data-name="Calque 2"><g id="Calque_8" data-name="Calque 8"><circle cx="34.35" cy="34.35" r="33.35" fill="none" stroke="#000" stroke-miterlimit="10" stroke-width="2"/><path d="M34.34,47.37c-.46-.51-.91-1-1.35-1.49a77.69,77.69,0,0,1-6-7.54,35.39,35.39,0,0,1-2.81-4.74,13.35,13.35,0,0,1-1.14-3.25,8.8,8.8,0,0,1,.18-3.92,11.09,11.09,0,0,1,7.17-8.07,11.35,11.35,0,0,1,13,3.71,11.09,11.09,0,0,1,2.39,7.26,8.83,8.83,0,0,1-.68,2.9,25.13,25.13,0,0,1-2.28,4.4,57,57,0,0,1-4.71,6.43c-1.16,1.39-2.37,2.74-3.57,4.1C34.49,47.23,34.42,47.28,34.34,47.37Zm0-2.63.11-.13a67.06,67.06,0,0,0,6-7.55A29.46,29.46,0,0,0,43.29,32,7.63,7.63,0,0,0,44,29.33a9.15,9.15,0,0,0-1.36-5.17,9.72,9.72,0,0,0-10.93-4.44,9.2,9.2,0,0,0-6.63,6.54,7.66,7.66,0,0,0,.25,5.59,30.4,30.4,0,0,0,2,3.83,60,60,0,0,0,5.09,6.89C33.06,43.29,33.7,44,34.35,44.74Z"/><path d="M30.12,43.66v1.76a12.14,12.14,0,0,0-5.43,1.73v.08c.21.13.41.27.62.39a11.57,11.57,0,0,0,2.71,1,26.46,26.46,0,0,0,6.63.7,26.06,26.06,0,0,0,5.5-.56,11.47,11.47,0,0,0,3.4-1.19c.16-.09.32-.22.51-.35-.14-.1-.24-.19-.36-.26A8.8,8.8,0,0,0,41.42,46c-.77-.2-1.55-.37-2.32-.56-.06,0-.17-.08-.17-.13,0-.54,0-1.08,0-1.65l1,.14A14.83,14.83,0,0,1,43.76,45a4.54,4.54,0,0,1,1.59,1.15,1.49,1.49,0,0,1,0,2.13,3.3,3.3,0,0,1-.51.48,7.32,7.32,0,0,1-2.06,1.06,19.26,19.26,0,0,1-4.18,1,30.91,30.91,0,0,1-5.09.27,27,27,0,0,1-5.86-.74,11.78,11.78,0,0,1-3.24-1.23A3.53,3.53,0,0,1,23.18,48a1.4,1.4,0,0,1,.08-1.74,4.29,4.29,0,0,1,1.53-1.17A13.53,13.53,0,0,1,28.31,44C28.9,43.86,29.5,43.77,30.12,43.66Z"/><path d="M34.34,34.7A5.63,5.63,0,1,1,40,29.08,5.55,5.55,0,0,1,34.34,34.7Zm3.88-5.61a3.87,3.87,0,1,0-3.87,3.85A3.9,3.9,0,0,0,38.22,29.09Z"/></g></g></svg>