<svg xmlns="http://www.w3.org/2000/svg" viewBox="0 0 134.51 133.44"><g id="Calque_2" data-name="Calque 2"><g id="text"><path d="M70.74,133.41A61.79,61.79,0,0,1,14,52.08l2.46.82A59.21,59.21,0,1,0,54.91,15.2l-.78-2.48A61.79,61.79,0,1,1,70.74,133.41Z" fill="#fff"/><path d="M75.27,115.34A43.83,43.83,0,0,1,28.9,71.66h2.6a41.19,41.19,0,1,0,42-41.14l0-2.6a43.75,43.75,0,0,1,1.74,87.42Z" fill="#fff"/><path d="M75.5,96.08A24.61,24.61,0,0,1,48.09,71.67h2.6a22,22,0,1,0,22-22V47.1a24.57,24.57,0,0,1,2.82,49Z" fill="#fff"/><ellipse cx="72.68" cy="71.67" rx="5.82" ry="5.82" fill="#fff"/><path d="M74.08,78.65a7.12,7.12,0,1,1,5.59-5.59A7.13,7.13,0,0,1,74.08,78.65Zm-.17-11.34a4.54,4.54,0,0,0-5.59,5.59A4.49,4.49,0,0,0,71.46,76a4.54,4.54,0,0,0,5.59-5.59A4.49,4.49,0,0,0,73.91,67.31Z" fill="#fff"/><path d="M62.58,61.41H37.79L0,24.72l28.09,1.41L26.85,0,62.58,37.3Zm-23.74-2.6H60V38.34L29.77,6.81l1.05,22.05L6.75,27.65Z" fill="#fff"/><rect x="49.77" y="18.68" width="2.6" height="61.8" transform="translate(-20.11 49.86) rotate(-44.38)" fill="#fff"/><polygon points="41.08 39.37 15.62 39.37 15.62 36.78 38.48 36.78 38.48 15.38 41.08 15.38 41.08 39.37" fill="#fff"/><polygon points="51.95 49.94 26.5 49.94 26.5 47.34 49.36 47.34 49.36 26.73 51.95 26.73 51.95 49.94" fill="#fff"/></g></g></svg>