<svg xmlns="http://www.w3.org/2000/svg" viewBox="0 0 141.96 141.92"><g id="Calque_2" data-name="Calque 2"><g id="icoen"><path d="M.5,137.6V47c1.13-2.8,3.21-3.72,6.19-3.69,13.48.1,27-.07,40.46.13,2.91,0,4.59-.7,5.49-3.46a2.2,2.2,0,0,0-.13-2.1,12.94,12.94,0,0,1,4.16-17.32,1.92,1.92,0,0,0,1-1.87c0-4,0-8.07.08-12.11a5.51,5.51,0,0,1,2.93-5.23A18.88,18.88,0,0,1,63,.5h1.65c4.48,1.6,5.26,2.72,5.23,7.58,0,3.53,0,7.07-.12,10.6a2.16,2.16,0,0,0,1,2.13c5.17,3.6,7.18,10.46,4.36,16a4.91,4.91,0,0,0,.07,5.36,2.06,2.06,0,0,0,2.08,1.29q21.25-.06,42.53,0h1.39a4,4,0,0,0,.11-.5q0-8.73,0-17.48c0-3.33,2.1-5.38,5.45-5.35a14.62,14.62,0,0,1,14.64,14.88q0,46.19,0,92.36a15.75,15.75,0,0,1-.76,4.72c-1.94,5.93-7.12,9.38-13.89,9.38q-60.09,0-120.17,0C3.65,141.42,1.54,140.48.5,137.6Zm39-71.73c-1.66,0-3.07,0-4.47,0-1.67,0-2.44-.77-2.39-2.15s.84-2,2.45-2c1.79,0,3.58,0,5.36.1a1.54,1.54,0,0,0,1.67-1c2-4,4-7.94,6-11.91.2-.4.37-.81.63-1.39H6.61c-2,0-2,0-2,2v85.62c0,2.18,0,2.18,2.19,2.18H126.44c.51,0,1,0,1.52,0a9.59,9.59,0,0,0-.22-19.18c-4.84-.12-6.38-1.68-6.38-6.5v-64H78.07a2.49,2.49,0,0,0,.11.58c2.13,4.47,4.25,8.94,6.43,13.38a1.68,1.68,0,0,0,1.27.7c1.83.11,3.67.09,5.5.14s2.48.69,2.47,2.07-.84,2-2.52,2.06H87c.25.56.43,1,.62,1.38,2.77,5.78,5.58,11.55,8.27,17.37a5.22,5.22,0,0,1,.4,3.26c-.74,2.69-1.76,5.3-2.73,7.92a3.32,3.32,0,0,1-3.27,2.29,3.7,3.7,0,0,1-3.34-2.45c-4.56-9.6-9.18-19.18-13.73-28.78a1.83,1.83,0,0,0-1.95-1.24c-5.33,0-10.65-.06-16-.21a2,2,0,0,0-2.17,1.37c-4.75,9.5-9.56,19-14.33,28.48a3.51,3.51,0,0,1-6.7-.49c-.71-2.32-1.46-4.63-2.29-6.91a4.64,4.64,0,0,1,.31-3.95c2.88-5.63,5.71-11.29,8.56-16.93C38.91,67.13,39.13,66.64,39.49,65.87Zm97.84,52V71.55c0-12.24,0-24.49,0-36.73a10.5,10.5,0,0,0-9.54-10.6c-2.14-.21-2.29-.08-2.29,2v85.57c0,.32,0,.64,0,1,0,.84.39,1.2,1.16,1.16A14.34,14.34,0,0,1,137.33,117.83ZM35.64,92.94,60.33,44l-4.1-1.89a2.27,2.27,0,0,0-.29.41Q45,64.3,34,86.07a2.09,2.09,0,0,0-.14,1.41C34.36,89.19,35,90.87,35.64,92.94Zm54.57.57c.66-1.85,1.14-3.37,1.74-4.84a2.73,2.73,0,0,0-.13-2.46Q81.56,64.83,71.34,43.46c-.19-.4-.41-.79-.61-1.18l-4.16,1.81C74.41,60.46,82.23,76.81,90.21,93.51ZM63.75,22.69a8.73,8.73,0,1,0,8.58,8.89A8.74,8.74,0,0,0,63.75,22.69ZM70.55,62c-2.37-5-4.7-9.82-7.14-14.91L55.9,62Zm-4.8-43.42c0-4,0-7.89,0-11.83,0-1.36-.64-2.07-1.82-2.12s-2,.68-2,2.08c0,2.3,0,4.59-.05,6.89v5Z" fill="#434f5a" stroke="#434f5a" stroke-miterlimit="10"/><path d="M63,103.37h44.6c3.38,0,4.47,1.07,4.48,4.41,0,5.69,0,11.38,0,17.07,0,2.84-1.26,4.11-4.12,4.11H18.06c-2.87,0-4.13-1.27-4.13-4.11q0-8.74,0-17.48c0-2.79,1.23-4,4.06-4Zm44.86,21.42v-17.2h-5.21c0,1.13,0,2.18,0,3.22,0,1.56-.75,2.34-2.09,2.32s-2-.83-2-2.39c0-1,0-2.08,0-3.13H93.26c0,2.12,0,4.14,0,6.15a2,2,0,0,1-2.41,2.09,1.9,1.9,0,0,1-1.7-2.13c0-2,0-4.09,0-6.13H83.87v1.7c0,.6,0,1.19,0,1.79a1.94,1.94,0,0,1-2.09,2,1.91,1.91,0,0,1-2-2.11c0-1.13,0-2.26,0-3.4H74.47c0,2.09,0,4.06,0,6a2.05,2.05,0,1,1-4.1.17c-.05-2,0-4.1,0-6.21H65.06v1.59c0,.55,0,1.11,0,1.66-.06,1.54-.69,2.25-2,2.27s-2.07-.74-2.12-2.3c0-1.08,0-2.15,0-3.23h-5.3c0,2.18,0,4.28,0,6.38A1.74,1.74,0,0,1,54,115.85a1.89,1.89,0,0,1-2.25-1.16,4.81,4.81,0,0,1-.21-1.62c0-1.81,0-3.63,0-5.44H46.25c0,1.18,0,2.23,0,3.28,0,1.52-.69,2.23-2,2.22a2,2,0,0,1-2.09-2.21c0-1.09,0-2.18,0-3.31H36.86c0,2.15,0,4.21,0,6.27a1.93,1.93,0,0,1-2.5,2,2,2,0,0,1-1.61-2.24c0-2,0-4,0-6H27.67c-.08.15-.16.22-.16.3,0,1,0,2,0,3,0,1.48-.74,2.23-2,2.23a2,2,0,0,1-2.08-2.2c0-1.09,0-2.18,0-3.35H18.17v17.21Z" fill="#434f5a" stroke="#434f5a" stroke-miterlimit="10"/></g></g></svg>