<svg xmlns="http://www.w3.org/2000/svg" viewBox="0 0 35.23 28.82"><g id="Calque_2" data-name="Calque 2"><g id="text"><path d="M10.63,22.56a7.55,7.55,0,0,1-6.77-5h3l.05-.19a7.56,7.56,0,0,1-4-2.57,6.82,6.82,0,0,1-1.56-4.44l2.95.81.13-.19a7.31,7.31,0,0,1-3-5.31,6.93,6.93,0,0,1,1-4.24,20.84,20.84,0,0,0,14.8,7.55,24,24,0,0,1,.24-3.34A7.22,7.22,0,0,1,29.19,1.8a1.18,1.18,0,0,0,1.35.32C31.75,1.65,33,1.23,34.25.76A7.36,7.36,0,0,1,31.42,4.4l.09.18,3.56-1,.16.13c-.95,1-1.86,2-2.86,2.87A1.67,1.67,0,0,0,31.7,8c0,8.9-5.88,18.37-16.42,20.39A20.55,20.55,0,0,1,.85,26.11L0,25.58A15,15,0,0,0,10.63,22.56Z" fill="#fff"/></g></g></svg>