<svg xmlns="http://www.w3.org/2000/svg" viewBox="0 0 41 28.82"><g id="Calque_2" data-name="Calque 2"><g id="text"><path d="M0,20V7.39C.06,7,.14,6.62.17,6.23.44,3.15,1.86,1.38,4.86.61A13.91,13.91,0,0,1,8.18.1q11-.11,22-.1A41.51,41.51,0,0,1,34.6.27c3.91.42,6,2.38,6.23,6.1.2,4.36.17,8.74.16,13.12a17.79,17.79,0,0,1-.49,3.69,6.13,6.13,0,0,1-4.62,5,13.79,13.79,0,0,1-3.3.54q-10.75.12-21.52.11a29.63,29.63,0,0,1-4-.29C3.09,28,1,26,.32,22,.19,21.35.1,20.66,0,20Zm15.79-5.81c0,1.43,0,2.85,0,4.28s1,2,2.21,1.32c2.7-1.39,5.39-2.77,8.05-4.23A2.27,2.27,0,0,0,27,14.24c.18-.67-.38-1.07-.95-1.37-2.67-1.38-5.32-2.78-8-4.15-1.3-.66-2.23-.11-2.27,1.34S15.78,12.79,15.79,14.16Z" fill="#fff"/></g></g></svg>